<svg width="2859" height="553" viewBox="0 0 2859 553" fill="none" xmlns="http://www.w3.org/2000/svg">
<path fill-rule="evenodd" clip-rule="evenodd" d="M310.207 209.96L245.333 305.2H296.104L289.012 325.833C289.012 325.833 208.275 329.057 206.314 325.833C204.353 322.609 262.658 243.115 262.658 243.115L255.406 244.928L250.402 224.911L310.207 209.96Z" fill="white"/>
<path d="M364.441 209.771C364.441 218.317 357.513 225.245 348.967 225.245C340.42 225.245 333.492 218.317 333.492 209.771C333.492 201.224 340.42 194.296 348.967 194.296C357.513 194.296 364.441 201.224 364.441 209.771Z" fill="white"/>
<path fill-rule="evenodd" clip-rule="evenodd" d="M199.102 166.357C229.004 146.196 265.826 137.557 302.122 142.079C338.422 146.602 371.681 163.979 395.084 190.874C418.506 217.791 430.278 252.217 427.836 287.175C425.394 322.128 408.944 354.754 382.036 378.495C355.398 401.999 327.224 414.043 290.294 414.043C284.309 414.043 279.456 409.191 279.456 403.206C279.456 397.22 284.309 392.368 290.294 392.368C321.452 392.368 344.633 382.591 367.696 362.242C390.491 342.13 404.183 314.734 406.214 285.665C408.244 256.602 398.484 227.8 378.733 205.103C358.964 182.384 330.643 167.475 299.442 163.588C268.238 159.7 236.69 167.155 211.219 184.328C185.764 201.491 168.352 227.014 162.289 255.607C156.23 284.185 161.91 313.907 178.293 338.788C194.692 363.693 220.643 381.945 251.008 389.647C256.81 391.119 260.32 397.015 258.848 402.816C257.377 408.618 251.481 412.128 245.679 410.657C210.296 401.682 179.69 380.321 160.191 350.708C140.676 321.07 133.805 285.45 141.086 251.111C148.363 216.788 169.184 186.529 199.102 166.357Z" fill="white"/>
<path fill-rule="evenodd" clip-rule="evenodd" d="M279.983 392.243L325.117 254.906L347.04 251.682L301.905 391.598C314.156 392.888 343.171 385.15 358.001 374.834L365.738 385.151C346.395 400.625 313.949 407.947 301.905 409.652C296.358 410.437 289.793 411.084 285.773 408.759C282.856 407.072 280.396 404.287 279.449 400.518C278.628 397.255 279.211 394.326 279.983 392.243Z" fill="white"/>
<path d="M103.688 276.5C103.688 305.133 80.4763 328.344 51.8438 328.344C23.2112 328.344 0 305.133 0 276.5C0 247.867 23.2112 224.656 51.8438 224.656C80.4763 224.656 103.688 247.867 103.688 276.5Z" fill="white"/>
<path d="M564.52 276.5C564.52 305.133 541.308 328.344 512.676 328.344C484.043 328.344 460.832 305.133 460.832 276.5C460.832 247.867 484.043 224.656 512.676 224.656C541.308 224.656 564.52 247.867 564.52 276.5Z" fill="white"/>
<path d="M103.688 51.8438C103.688 80.4763 80.4763 103.688 51.8438 103.688C23.2112 103.688 0 80.4763 0 51.8438C0 23.2112 23.2112 0 51.8438 0C80.4763 0 103.688 23.2112 103.688 51.8438Z" fill="white"/>
<path d="M334.105 51.8438C334.105 80.4763 310.894 103.688 282.262 103.688C253.629 103.688 230.418 80.4763 230.418 51.8438C230.418 23.2112 253.629 0 282.262 0C310.894 0 334.105 23.2112 334.105 51.8438Z" fill="white"/>
<path d="M564.52 51.8438C564.52 80.4763 541.308 103.688 512.676 103.688C484.043 103.688 460.832 80.4763 460.832 51.8438C460.832 23.2112 484.043 0 512.676 0C541.308 0 564.52 23.2112 564.52 51.8438Z" fill="white"/>
<path d="M103.688 501.156C103.688 529.789 80.4763 553 51.8438 553C23.2112 553 0 529.789 0 501.156C0 472.524 23.2112 449.312 51.8438 449.312C80.4763 449.312 103.688 472.524 103.688 501.156Z" fill="white"/>
<path d="M334.105 501.156C334.105 529.789 310.894 553 282.262 553C253.629 553 230.418 529.789 230.418 501.156C230.418 472.524 253.629 449.312 282.262 449.312C310.894 449.312 334.105 472.524 334.105 501.156Z" fill="white"/>
<path d="M564.52 501.156C564.52 529.789 541.308 553 512.676 553C484.043 553 460.832 529.789 460.832 501.156C460.832 472.524 484.043 449.312 512.676 449.312C541.308 449.312 564.52 472.524 564.52 501.156Z" fill="white"/>
<path d="M944.236 142.286H965.483L908.54 346.687H944.236L938.711 367.084H902.166L890.692 407.242C890.267 408.658 890.055 410.075 890.055 411.491C890.055 415.458 891.542 418.574 894.517 420.84C897.633 423.107 902.307 424.24 908.54 424.24H926.388L920.864 444H792.104L797.203 424.24H813.776C825.392 424.24 832.687 419.07 835.661 408.729L847.772 367.084H740.898L747.484 342.65L944.236 142.286ZM888.142 226.851L771.919 346.687H853.297L888.142 226.851ZM1081.07 129.538C1090.7 129.538 1098.92 132.937 1105.72 139.737C1112.52 146.536 1115.92 154.752 1115.92 164.384C1115.92 174.016 1112.52 182.232 1105.72 189.031C1098.92 195.83 1090.7 199.23 1081.07 199.23C1071.44 199.23 1063.22 195.83 1056.42 189.031C1049.62 182.232 1046.22 174.016 1046.22 164.384C1046.22 154.752 1049.62 146.536 1056.42 139.737C1063.22 132.937 1071.44 129.538 1081.07 129.538ZM1004.37 244.487L1100.62 240.45L1054.93 398.106C1052.95 405.188 1051.96 410.358 1051.96 413.616C1051.96 416.166 1052.46 418.149 1053.45 419.565C1054.44 420.84 1055.86 421.478 1057.7 421.478C1061.8 421.478 1067.05 418.432 1073.42 412.341C1084.04 402.284 1094.46 388.048 1104.65 369.634L1120.16 378.558C1093.68 426.294 1064.57 450.162 1032.84 450.162C1022.07 450.162 1013.57 446.975 1007.34 440.6C1001.11 434.226 997.992 425.515 997.992 414.466C997.992 406.817 998.983 399.593 1000.97 392.794L1032.63 282.732C1033.33 280.749 1033.69 278.695 1033.69 276.57C1033.69 272.604 1032.06 269.488 1028.8 267.221C1025.54 264.813 1019.95 263.609 1012.02 263.609H998.417L1004.37 244.487ZM1498.18 374.159C1500.93 374.159 1503.33 375.247 1505.36 377.422L1525.59 399.397C1512.83 414.773 1497.16 426.667 1478.6 435.079C1460.03 443.347 1437.84 447.481 1412.02 447.481C1389.1 447.481 1368.36 443.565 1349.79 435.732C1331.37 427.754 1315.63 416.731 1302.58 402.661C1289.53 388.446 1279.44 371.548 1272.34 351.966C1265.37 332.385 1261.89 310.845 1261.89 287.347C1261.89 263.849 1265.59 242.309 1272.99 222.727C1280.53 203.001 1291.05 186.103 1304.54 172.033C1318.17 157.818 1334.42 146.794 1353.27 138.962C1372.28 131.129 1393.16 127.213 1415.94 127.213C1438.56 127.213 1458.51 130.911 1475.77 138.309C1493.17 145.561 1508.26 155.28 1521.02 167.464L1504.27 191.179C1503.11 192.775 1501.73 194.153 1500.14 195.313C1498.54 196.474 1496.37 197.054 1493.61 197.054C1490.71 197.054 1487.37 195.748 1483.6 193.137C1479.97 190.381 1475.26 187.408 1469.46 184.217C1463.8 180.881 1456.62 177.907 1447.92 175.296C1439.36 172.54 1428.63 171.162 1415.72 171.162C1400.78 171.162 1387.07 173.773 1374.6 178.995C1362.12 184.217 1351.39 191.832 1342.4 201.84C1333.4 211.849 1326.37 224.033 1321.29 238.393C1316.36 252.753 1313.89 269.071 1313.89 287.347C1313.89 305.768 1316.5 322.231 1321.73 336.736C1326.95 351.096 1334.13 363.28 1343.27 373.289C1352.4 383.152 1363.14 390.694 1375.47 395.916C1387.8 401.138 1401.07 403.749 1415.28 403.749C1423.99 403.749 1431.75 403.314 1438.56 402.443C1445.53 401.428 1451.91 399.905 1457.71 397.874C1463.51 395.699 1468.95 393.015 1474.03 389.824C1479.25 386.633 1484.4 382.717 1489.48 378.075C1492.38 375.464 1495.28 374.159 1498.18 374.159ZM1652.14 218.594C1668.53 218.594 1683.33 221.277 1696.53 226.644C1709.87 232.011 1721.19 239.626 1730.47 249.489C1739.9 259.352 1747.15 271.319 1752.23 285.389C1757.3 299.458 1759.84 315.269 1759.84 332.82C1759.84 350.371 1757.3 366.181 1752.23 380.251C1747.15 394.321 1739.9 406.36 1730.47 416.368C1721.19 426.231 1709.87 433.847 1696.53 439.213C1683.33 444.58 1668.53 447.264 1652.14 447.264C1635.61 447.264 1620.67 444.58 1607.32 439.213C1594.12 433.847 1582.81 426.231 1573.38 416.368C1563.95 406.36 1556.7 394.321 1551.62 380.251C1546.55 366.181 1544.01 350.371 1544.01 332.82C1544.01 315.269 1546.55 299.458 1551.62 285.389C1556.7 271.319 1563.95 259.352 1573.38 249.489C1582.81 239.626 1594.12 232.011 1607.32 226.644C1620.67 221.277 1635.61 218.594 1652.14 218.594ZM1652.14 410.711C1672.16 410.711 1687.03 404.039 1696.75 390.694C1706.61 377.205 1711.54 357.986 1711.54 333.037C1711.54 308.089 1706.61 288.87 1696.75 275.38C1687.03 261.746 1672.16 254.928 1652.14 254.928C1631.84 254.928 1616.75 261.746 1606.89 275.38C1597.02 288.87 1592.09 308.089 1592.09 333.037C1592.09 357.986 1597.02 377.205 1606.89 390.694C1616.75 404.039 1631.84 410.711 1652.14 410.711ZM1848.52 251.447C1853.31 246.516 1858.24 242.092 1863.31 238.175C1868.54 234.114 1874.05 230.633 1879.85 227.732C1885.65 224.831 1891.82 222.582 1898.34 220.987C1904.87 219.391 1911.98 218.594 1919.67 218.594C1931.85 218.594 1942.51 220.624 1951.65 224.686C1960.93 228.747 1968.69 234.476 1974.93 241.874C1981.31 249.271 1986.1 258.192 1989.29 268.636C1992.48 278.934 1994.08 290.32 1994.08 302.795V444H1947.52V302.795C1947.52 287.855 1944.03 276.251 1937.07 267.983C1930.26 259.715 1919.81 255.581 1905.74 255.581C1895.3 255.581 1885.58 257.974 1876.59 262.761C1867.74 267.548 1859.4 274.075 1851.57 282.343V444H1804.79V222.075H1833.07C1839.45 222.075 1843.52 225.048 1845.26 230.995L1848.52 251.447ZM2205.58 265.589C2204.13 267.475 2202.75 268.926 2201.45 269.941C2200.14 270.956 2198.25 271.464 2195.79 271.464C2193.32 271.464 2190.71 270.594 2187.96 268.853C2185.34 267.113 2182.15 265.227 2178.38 263.196C2174.76 261.02 2170.33 259.062 2165.11 257.322C2159.89 255.581 2153.36 254.711 2145.53 254.711C2135.38 254.711 2126.45 256.524 2118.77 260.15C2111.22 263.776 2104.84 268.998 2099.62 275.815C2094.54 282.488 2090.7 290.683 2088.09 300.401C2085.62 309.975 2084.39 320.781 2084.39 332.82C2084.39 345.294 2085.77 356.39 2088.52 366.109C2091.28 375.827 2095.2 384.022 2100.27 390.694C2105.49 397.367 2111.73 402.443 2118.98 405.925C2126.38 409.406 2134.65 411.146 2143.79 411.146C2152.78 411.146 2160.11 410.058 2165.76 407.883C2171.42 405.707 2176.13 403.314 2179.91 400.703C2183.68 398.092 2186.87 395.699 2189.48 393.523C2192.23 391.347 2195.14 390.259 2198.18 390.259C2201.95 390.259 2204.85 391.71 2206.88 394.611L2220.16 411.799C2214.79 418.326 2208.84 423.838 2202.32 428.335C2195.79 432.831 2188.9 436.53 2181.65 439.431C2174.39 442.187 2166.85 444.145 2159.02 445.305C2151.19 446.611 2143.28 447.264 2135.3 447.264C2121.52 447.264 2108.61 444.725 2096.57 439.649C2084.68 434.427 2074.24 426.957 2065.24 417.238C2056.4 407.375 2049.36 395.409 2044.14 381.339C2039.06 367.124 2036.52 350.951 2036.52 332.82C2036.52 316.429 2038.84 301.272 2043.49 287.347C2048.13 273.277 2054.87 261.165 2063.72 251.012C2072.71 240.859 2083.81 232.953 2097.01 227.297C2110.21 221.495 2125.44 218.594 2142.7 218.594C2158.8 218.594 2172.94 221.204 2185.13 226.426C2197.46 231.648 2208.41 239.045 2217.98 248.619L2205.58 265.589ZM2399.52 308.016C2399.52 300.184 2398.35 292.931 2396.03 286.259C2393.86 279.442 2390.59 273.567 2386.24 268.636C2381.89 263.559 2376.45 259.642 2369.93 256.887C2363.54 253.986 2356.15 252.535 2347.73 252.535C2330.76 252.535 2317.42 257.394 2307.7 267.113C2297.98 276.831 2291.82 290.465 2289.21 308.016H2399.52ZM2287.9 336.736C2288.48 349.355 2290.44 360.307 2293.77 369.59C2297.11 378.728 2301.53 386.343 2307.05 392.435C2312.7 398.527 2319.38 403.096 2327.06 406.142C2334.9 409.043 2343.6 410.494 2353.17 410.494C2362.31 410.494 2370.22 409.478 2376.89 407.448C2383.56 405.272 2389.36 402.951 2394.29 400.485C2399.23 397.874 2403.43 395.554 2406.91 393.523C2410.39 391.347 2413.59 390.259 2416.49 390.259C2420.26 390.259 2423.16 391.71 2425.19 394.611L2438.46 411.799C2432.95 418.326 2426.71 423.838 2419.75 428.335C2412.79 432.831 2405.39 436.53 2397.56 439.431C2389.72 442.187 2381.67 444.145 2373.41 445.305C2365.14 446.611 2357.09 447.264 2349.26 447.264C2333.88 447.264 2319.59 444.725 2306.39 439.649C2293.34 434.427 2281.95 426.812 2272.23 416.803C2262.66 406.795 2255.12 394.393 2249.61 379.598C2244.24 364.803 2241.56 347.76 2241.56 328.468C2241.56 313.093 2243.95 298.733 2248.74 285.389C2253.67 272.044 2260.63 260.44 2269.62 250.577C2278.76 240.714 2289.79 232.953 2302.69 227.297C2315.75 221.495 2330.47 218.594 2346.86 218.594C2360.5 218.594 2373.12 220.842 2384.72 225.338C2396.32 229.69 2406.33 236.145 2414.75 244.702C2423.16 253.26 2429.69 263.776 2434.33 276.251C2439.11 288.58 2441.51 302.65 2441.51 318.46C2441.51 325.712 2440.71 330.572 2439.11 333.037C2437.52 335.503 2434.62 336.736 2430.41 336.736H2287.9ZM2531.91 388.301C2538.44 396.714 2545.54 402.661 2553.23 406.142C2561.06 409.478 2569.69 411.146 2579.12 411.146C2597.4 411.146 2611.61 404.474 2621.77 391.13C2632.07 377.785 2637.21 357.913 2637.21 331.514C2637.21 317.88 2636.05 306.276 2633.73 296.703C2631.41 286.984 2628.08 279.079 2623.73 272.987C2619.37 266.895 2614.08 262.471 2607.84 259.715C2601.61 256.959 2594.57 255.581 2586.74 255.581C2574.84 255.581 2564.55 258.192 2555.84 263.414C2547.28 268.49 2539.31 275.815 2531.91 285.389V388.301ZM2529.52 254.276C2538.8 243.397 2549.31 234.621 2561.06 227.949C2572.96 221.277 2586.74 217.941 2602.4 217.941C2614.88 217.941 2626.19 220.479 2636.34 225.556C2646.5 230.488 2655.2 237.74 2662.45 247.313C2669.71 256.887 2675.29 268.781 2679.21 282.995C2683.27 297.065 2685.3 313.238 2685.3 331.514C2685.3 347.905 2683.05 363.208 2678.55 377.422C2674.2 391.492 2667.89 403.749 2659.62 414.192C2651.36 424.491 2641.35 432.614 2629.6 438.561C2617.85 444.363 2604.58 447.264 2589.78 447.264C2576.73 447.264 2565.63 445.16 2556.49 440.954C2547.5 436.748 2539.31 430.946 2531.91 423.548V517.758H2485.13V222.075H2513.42C2519.8 222.075 2523.86 225.048 2525.6 230.995L2529.52 254.276ZM2798.92 447.481C2780.5 447.481 2766.29 442.332 2756.28 432.033C2746.42 421.59 2741.48 406.94 2741.48 388.084V258.845H2717.12C2714.5 258.845 2712.26 258.047 2710.37 256.451C2708.48 254.711 2707.54 252.172 2707.54 248.836V229.907L2743.44 224.686L2753.67 160.501C2754.39 158.036 2755.63 156.077 2757.37 154.627C2759.11 153.031 2761.43 152.234 2764.33 152.234H2788.26V225.121H2849.84V258.845H2788.26V384.82C2788.26 392.798 2790.22 398.89 2794.14 403.096C2798.05 407.303 2803.27 409.406 2809.8 409.406C2813.43 409.406 2816.55 408.971 2819.16 408.1C2821.77 407.085 2824.02 406.07 2825.9 405.054C2827.79 403.894 2829.38 402.879 2830.69 402.008C2832.14 400.993 2833.52 400.485 2834.82 400.485C2837.43 400.485 2839.54 401.936 2841.13 404.837L2855.06 427.682C2847.8 434.064 2839.25 438.996 2829.38 442.477C2819.52 445.813 2809.37 447.481 2798.92 447.481Z" fill="white"/>
</svg>
